<svg xmlns="http://www.w3.org/2000/svg" xmlns:xlink="http://www.w3.org/1999/xlink" width="500" zoomAndPan="magnify" viewBox="0 0 375 374.999991" height="500" preserveAspectRatio="xMidYMid meet" version="1.0"><defs><g/><clipPath id="a5c0479e2d"><path d="M 132 65 L 260 65 L 260 182.25 L 132 182.25 Z M 132 65 " clip-rule="nonzero"/></clipPath><clipPath id="09b475e22d"><path d="M 115 37.5 L 242 37.5 L 242 150 L 115 150 Z M 115 37.5 " clip-rule="nonzero"/></clipPath><clipPath id="efb7d181c8"><path d="M 176 37.5 L 321.964844 37.5 L 321.964844 179 L 176 179 Z M 176 37.5 " clip-rule="nonzero"/></clipPath><clipPath id="e7182630c0"><path d="M 52.714844 41 L 199 41 L 199 182.25 L 52.714844 182.25 Z M 52.714844 41 " clip-rule="nonzero"/></clipPath></defs><g clip-path="url(#a5c0479e2d)"><path fill="#fefefe" d="M 248.972656 171.472656 L 238.648438 171.472656 L 132.367188 65.191406 L 132.367188 80.738281 L 223.097656 171.472656 L 234.097656 182.46875 L 259.96875 182.46875 L 259.96875 133.996094 L 248.972656 123 Z M 248.972656 171.472656 " fill-opacity="1" fill-rule="nonzero"/></g><g clip-path="url(#09b475e22d)"><path fill="#fefefe" d="M 126.023438 48.523438 L 141.140625 48.523438 L 241.921875 149.296875 L 241.921875 133.746094 L 145.703125 37.527344 L 115.027344 37.527344 L 115.027344 82.367188 L 126.023438 93.363281 Z M 126.023438 48.523438 " fill-opacity="1" fill-rule="nonzero"/></g><g clip-path="url(#efb7d181c8)"><path fill="#282f34" d="M 302.894531 169.515625 C 297.289062 169.515625 292.746094 164.972656 292.746094 159.367188 C 292.746094 157.660156 293.167969 156.050781 293.910156 154.640625 C 295.613281 151.417969 298.996094 149.222656 302.894531 149.222656 C 303.144531 149.222656 303.394531 149.230469 303.644531 149.25 C 308.898438 149.632812 313.042969 154.015625 313.042969 159.367188 C 313.042969 164.972656 308.5 169.515625 302.894531 169.515625 Z M 296.042969 141.226562 L 248.972656 94.152344 L 203.351562 48.523438 L 248.972656 48.523438 L 248.972656 84.488281 L 259.96875 95.472656 L 259.96875 37.527344 L 176.808594 37.527344 L 187.804688 48.523438 L 248.972656 109.699219 L 287.222656 147.953125 C 284.886719 151.15625 283.507812 155.101562 283.507812 159.367188 C 283.507812 170.074219 292.1875 178.753906 302.894531 178.753906 C 313.601562 178.753906 322.277344 170.074219 322.277344 159.367188 C 322.277344 148.660156 313.597656 139.984375 302.894531 139.984375 C 300.480469 139.984375 298.175781 140.421875 296.042969 141.226562 Z M 296.042969 141.226562 " fill-opacity="1" fill-rule="evenodd"/></g><g clip-path="url(#e7182630c0)"><path fill="#282f34" d="M 72.097656 50.480469 C 77.703125 50.480469 82.246094 55.023438 82.246094 60.628906 C 82.246094 62.335938 81.824219 63.945312 81.082031 65.355469 C 79.382812 68.578125 75.996094 70.773438 72.101562 70.773438 C 71.847656 70.773438 71.597656 70.765625 71.351562 70.746094 C 66.097656 70.363281 61.953125 65.980469 61.953125 60.628906 C 61.953125 55.023438 66.496094 50.480469 72.101562 50.480469 Z M 78.949219 78.769531 L 126.023438 125.84375 L 171.640625 171.472656 L 126.023438 171.472656 L 126.023438 135.507812 L 115.027344 124.523438 L 115.027344 182.46875 L 198.183594 182.46875 L 187.1875 171.472656 L 126.023438 110.296875 L 87.769531 72.042969 C 90.105469 68.839844 91.484375 64.894531 91.484375 60.628906 C 91.484375 49.921875 82.804688 41.242188 72.101562 41.242188 C 61.394531 41.242188 52.714844 49.921875 52.714844 60.628906 C 52.714844 71.335938 61.394531 80.011719 72.101562 80.011719 C 74.511719 80.011719 76.820312 79.574219 78.949219 78.769531 Z M 78.949219 78.769531 " fill-opacity="1" fill-rule="evenodd"/></g><g fill="#282f34" fill-opacity="1"><g transform="translate(62.585655, 250.243006)"><g><path d="M 4.082031 0 L 11.804688 0 L 11.804688 -11.707031 L 24.144531 -11.707031 L 24.144531 -18.507812 L 11.804688 -18.507812 L 11.804688 -27.007812 L 25.40625 -27.007812 L 25.40625 -34.003906 L 4.082031 -34.003906 Z M 4.082031 0 "/></g></g></g><g fill="#282f34" fill-opacity="1"><g transform="translate(88.91327, 250.243006)"><g><path d="M 20.207031 0.679688 C 30.847656 0.679688 38.375 -6.605469 38.375 -17.003906 C 38.375 -27.398438 30.847656 -34.683594 20.207031 -34.683594 C 9.570312 -34.683594 2.089844 -27.398438 2.089844 -17.003906 C 2.089844 -6.605469 9.570312 0.679688 20.207031 0.679688 Z M 9.957031 -17.003906 C 9.957031 -23.125 14.183594 -27.351562 20.207031 -27.351562 C 26.28125 -27.351562 30.457031 -23.125 30.457031 -17.003906 C 30.457031 -10.882812 26.28125 -6.65625 20.207031 -6.65625 C 14.183594 -6.65625 9.957031 -10.882812 9.957031 -17.003906 Z M 9.957031 -17.003906 "/></g></g></g><g fill="#282f34" fill-opacity="1"><g transform="translate(128.161918, 250.243006)"><g><path d="M 4.082031 0 L 11.804688 0 L 11.804688 -10.589844 L 16.90625 -10.589844 L 22.976562 0 L 31.917969 0 L 24.871094 -11.804688 C 28.953125 -13.601562 31.332031 -17.292969 31.332031 -22.296875 C 31.332031 -29.535156 26.378906 -34.003906 18.605469 -34.003906 L 4.082031 -34.003906 Z M 11.707031 -17.097656 L 11.707031 -27.398438 L 17.585938 -27.398438 C 21.375 -27.398438 23.511719 -25.550781 23.511719 -22.25 C 23.511719 -18.945312 21.375 -17.097656 17.585938 -17.097656 Z M 11.707031 -17.097656 "/></g></g></g><g fill="#282f34" fill-opacity="1"><g transform="translate(161.144355, 250.243006)"><g><path d="M 1.796875 0 L 7.285156 0 C 15.789062 0 20.160156 -4.566406 20.160156 -12.4375 L 20.160156 -34.003906 L 12.386719 -34.003906 L 12.386719 -13.019531 C 12.386719 -9.230469 10.929688 -7.238281 6.800781 -7.238281 L 1.796875 -7.238281 Z M 1.796875 0 "/></g></g></g><g fill="#282f34" fill-opacity="1"><g transform="translate(184.071705, 250.243006)"><g><path d="M 4.082031 0 L 26.960938 0 L 26.960938 -6.558594 L 11.757812 -6.558594 L 11.757812 -13.992188 L 25.113281 -13.992188 L 25.113281 -20.453125 L 11.757812 -20.453125 L 11.757812 -27.496094 L 26.425781 -27.496094 L 26.425781 -34.003906 L 4.082031 -34.003906 Z M 4.082031 0 "/></g></g></g><g fill="#282f34" fill-opacity="1"><g transform="translate(212.293766, 250.243006)"><g><path d="M 19.675781 0.679688 C 28.613281 0.679688 35.558594 -4.761719 37.257812 -13.019531 L 29.292969 -13.019531 C 27.882812 -9.132812 24.289062 -6.65625 19.820312 -6.65625 C 14.039062 -6.65625 9.957031 -10.882812 9.957031 -17.003906 C 9.957031 -23.125 14.085938 -27.351562 19.867188 -27.351562 C 24.191406 -27.351562 27.738281 -25.019531 29.050781 -21.277344 L 37.015625 -21.277344 C 35.074219 -29.4375 28.273438 -34.683594 19.625 -34.683594 C 9.328125 -34.683594 2.089844 -27.398438 2.089844 -17.003906 C 2.089844 -6.605469 9.328125 0.679688 19.675781 0.679688 Z M 19.675781 0.679688 "/></g></g></g><g fill="#282f34" fill-opacity="1"><g transform="translate(250.279454, 250.243006)"><g><path d="M 12.242188 0 L 19.964844 0 L 19.964844 -26.765625 L 30.75 -26.765625 L 30.75 -34.003906 L 1.457031 -34.003906 L 1.457031 -26.765625 L 12.242188 -26.765625 Z M 12.242188 0 "/></g></g></g><g fill="#282f34" fill-opacity="1"><g transform="translate(281.270308, 250.243006)"><g><path d="M 15.933594 0.679688 C 23.996094 0.679688 28.953125 -3.15625 28.953125 -9.570312 C 28.953125 -14.960938 25.40625 -18.167969 16.953125 -20.160156 C 11.757812 -21.375 9.957031 -22.6875 9.957031 -24.773438 C 9.957031 -27.007812 11.949219 -28.371094 15.203125 -28.371094 C 18.75 -28.371094 20.890625 -26.523438 20.890625 -23.464844 L 28.320312 -23.464844 C 28.320312 -30.3125 23.171875 -34.683594 15.109375 -34.683594 C 7.285156 -34.683594 2.429688 -30.847656 2.429688 -24.628906 C 2.429688 -19.089844 6.167969 -15.789062 14.136719 -14.085938 C 18.945312 -13.066406 21.132812 -11.660156 21.132812 -9.277344 C 21.132812 -6.996094 19.089844 -5.683594 15.886719 -5.683594 C 12.144531 -5.683594 9.714844 -7.578125 9.714844 -10.832031 L 2.136719 -10.832031 C 2.136719 -3.789062 7.382812 0.679688 15.933594 0.679688 Z M 15.933594 0.679688 "/></g></g></g><g fill="#282f34" fill-opacity="1"><g transform="translate(85.28369, 277.676725)"><g><path d="M 5.5625 0.210938 C 8.296875 0.210938 9.964844 -1.503906 9.964844 -4.328125 L 9.964844 -10.523438 L 7.574219 -10.523438 L 7.574219 -4.496094 C 7.574219 -2.886719 6.898438 -2.058594 5.5625 -2.058594 C 4.222656 -2.058594 3.546875 -2.886719 3.546875 -4.496094 L 3.546875 -10.523438 L 1.15625 -10.523438 L 1.15625 -4.328125 C 1.15625 -1.503906 2.824219 0.210938 5.5625 0.210938 Z M 5.5625 0.210938 "/></g></g></g><g fill="#282f34" fill-opacity="1"><g transform="translate(96.705411, 277.676725)"><g><path d="M 1.261719 0 L 3.636719 0 L 3.636719 -6.449219 L 8.28125 0 L 10.3125 0 L 10.3125 -10.523438 L 7.9375 -10.523438 L 7.9375 -4.117188 L 3.292969 -10.523438 L 1.261719 -10.523438 Z M 1.261719 0 "/></g></g></g><g fill="#282f34" fill-opacity="1"><g transform="translate(108.577981, 277.676725)"><g><path d="M 1.261719 0 L 8.253906 0 L 8.253906 -2.238281 L 3.652344 -2.238281 L 3.652344 -10.523438 L 1.261719 -10.523438 Z M 1.261719 0 "/></g></g></g><g fill="#282f34" fill-opacity="1"><g transform="translate(117.535058, 277.676725)"><g><path d="M 1.261719 0 L 8.34375 0 L 8.34375 -2.027344 L 3.636719 -2.027344 L 3.636719 -4.328125 L 7.769531 -4.328125 L 7.769531 -6.328125 L 3.636719 -6.328125 L 3.636719 -8.507812 L 8.175781 -8.507812 L 8.175781 -10.523438 L 1.261719 -10.523438 Z M 1.261719 0 "/></g></g></g><g fill="#282f34" fill-opacity="1"><g transform="translate(126.942983, 277.676725)"><g><path d="M 0.136719 0 L 2.691406 0 L 3.398438 -1.820312 L 7.574219 -1.820312 L 8.28125 0 L 10.835938 0 L 6.660156 -10.523438 L 4.3125 -10.523438 Z M 4.011719 -3.699219 L 5.488281 -7.546875 L 6.972656 -3.699219 Z M 4.011719 -3.699219 "/></g></g></g><g fill="#282f34" fill-opacity="1"><g transform="translate(138.214423, 277.676725)"><g><path d="M 4.929688 0.210938 C 7.425781 0.210938 8.957031 -0.976562 8.957031 -2.960938 C 8.957031 -4.628906 7.859375 -5.621094 5.246094 -6.238281 C 3.636719 -6.613281 3.082031 -7.019531 3.082031 -7.664062 C 3.082031 -8.355469 3.699219 -8.777344 4.703125 -8.777344 C 5.800781 -8.777344 6.464844 -8.207031 6.464844 -7.261719 L 8.761719 -7.261719 C 8.761719 -9.378906 7.167969 -10.730469 4.675781 -10.730469 C 2.253906 -10.730469 0.75 -9.542969 0.75 -7.621094 C 0.75 -5.90625 1.910156 -4.886719 4.375 -4.359375 C 5.863281 -4.042969 6.539062 -3.609375 6.539062 -2.871094 C 6.539062 -2.164062 5.90625 -1.757812 4.914062 -1.757812 C 3.757812 -1.757812 3.007812 -2.34375 3.007812 -3.351562 L 0.660156 -3.351562 C 0.660156 -1.171875 2.285156 0.210938 4.929688 0.210938 Z M 4.929688 0.210938 "/></g></g></g><g fill="#282f34" fill-opacity="1"><g transform="translate(148.148342, 277.676725)"><g><path d="M 7.769531 0 L 10.160156 0 L 10.160156 -10.523438 L 7.769531 -10.523438 L 7.769531 -6.476562 L 3.652344 -6.476562 L 3.652344 -10.523438 L 1.261719 -10.523438 L 1.261719 0 L 3.652344 0 L 3.652344 -4.238281 L 7.769531 -4.238281 Z M 7.769531 0 "/></g></g></g><g fill="#282f34" fill-opacity="1"><g transform="translate(159.870632, 277.676725)"><g><path d="M 1.261719 0 L 3.652344 0 L 3.652344 -10.523438 L 1.261719 -10.523438 Z M 1.261719 0 "/></g></g></g><g fill="#282f34" fill-opacity="1"><g transform="translate(165.085647, 277.676725)"><g><path d="M 1.261719 0 L 3.636719 0 L 3.636719 -6.449219 L 8.28125 0 L 10.3125 0 L 10.3125 -10.523438 L 7.9375 -10.523438 L 7.9375 -4.117188 L 3.292969 -10.523438 L 1.261719 -10.523438 Z M 1.261719 0 "/></g></g></g><g fill="#282f34" fill-opacity="1"><g transform="translate(176.958222, 277.676725)"><g><path d="M 6.164062 0.210938 C 9.636719 0.210938 11.875 -2.359375 11.632812 -5.96875 L 5.695312 -5.96875 L 5.695312 -4.117188 L 9.109375 -4.117188 C 8.808594 -2.839844 7.726562 -1.984375 6.191406 -1.984375 C 4.269531 -1.984375 3.035156 -3.367188 3.035156 -5.261719 C 3.035156 -7.183594 4.3125 -8.539062 6.164062 -8.539062 C 7.335938 -8.539062 8.3125 -7.996094 8.824219 -7.078125 L 11.394531 -7.078125 C 10.761719 -9.289062 8.671875 -10.730469 6.117188 -10.730469 C 2.917969 -10.730469 0.644531 -8.460938 0.644531 -5.261719 C 0.644531 -2.042969 2.929688 0.210938 6.164062 0.210938 Z M 6.164062 0.210938 "/></g></g></g><g fill="#282f34" fill-opacity="1"><g transform="translate(189.522097, 277.676725)"><g/></g></g><g fill="#282f34" fill-opacity="1"><g transform="translate(193.35451, 277.676725)"><g><path d="M 6.085938 0.210938 C 8.851562 0.210938 11.003906 -1.472656 11.527344 -4.027344 L 9.0625 -4.027344 C 8.628906 -2.824219 7.515625 -2.058594 6.132812 -2.058594 C 4.34375 -2.058594 3.082031 -3.367188 3.082031 -5.261719 C 3.082031 -7.15625 4.359375 -8.460938 6.148438 -8.460938 C 7.484375 -8.460938 8.582031 -7.742188 8.988281 -6.582031 L 11.453125 -6.582031 C 10.851562 -9.109375 8.75 -10.730469 6.074219 -10.730469 C 2.886719 -10.730469 0.644531 -8.476562 0.644531 -5.261719 C 0.644531 -2.042969 2.886719 0.210938 6.085938 0.210938 Z M 6.085938 0.210938 "/></g></g></g><g fill="#282f34" fill-opacity="1"><g transform="translate(205.783136, 277.676725)"><g><path d="M 1.261719 0 L 3.652344 0 L 3.652344 -3.277344 L 5.230469 -3.277344 L 7.109375 0 L 9.875 0 L 7.695312 -3.652344 C 8.957031 -4.207031 9.695312 -5.351562 9.695312 -6.898438 C 9.695312 -9.140625 8.160156 -10.523438 5.757812 -10.523438 L 1.261719 -10.523438 Z M 3.621094 -5.289062 L 3.621094 -8.476562 L 5.441406 -8.476562 C 6.613281 -8.476562 7.273438 -7.90625 7.273438 -6.882812 C 7.273438 -5.863281 6.613281 -5.289062 5.441406 -5.289062 Z M 3.621094 -5.289062 "/></g></g></g><g fill="#282f34" fill-opacity="1"><g transform="translate(216.663839, 277.676725)"><g><path d="M 1.261719 0 L 8.34375 0 L 8.34375 -2.027344 L 3.636719 -2.027344 L 3.636719 -4.328125 L 7.769531 -4.328125 L 7.769531 -6.328125 L 3.636719 -6.328125 L 3.636719 -8.507812 L 8.175781 -8.507812 L 8.175781 -10.523438 L 1.261719 -10.523438 Z M 1.261719 0 "/></g></g></g><g fill="#282f34" fill-opacity="1"><g transform="translate(226.071764, 277.676725)"><g><path d="M 0.136719 0 L 2.691406 0 L 3.398438 -1.820312 L 7.574219 -1.820312 L 8.28125 0 L 10.835938 0 L 6.660156 -10.523438 L 4.3125 -10.523438 Z M 4.011719 -3.699219 L 5.488281 -7.546875 L 6.972656 -3.699219 Z M 4.011719 -3.699219 "/></g></g></g><g fill="#282f34" fill-opacity="1"><g transform="translate(237.343203, 277.676725)"><g><path d="M 3.789062 0 L 6.179688 0 L 6.179688 -8.28125 L 9.515625 -8.28125 L 9.515625 -10.523438 L 0.449219 -10.523438 L 0.449219 -8.28125 L 3.789062 -8.28125 Z M 3.789062 0 "/></g></g></g><g fill="#282f34" fill-opacity="1"><g transform="translate(247.607746, 277.676725)"><g><path d="M 1.261719 0 L 3.652344 0 L 3.652344 -10.523438 L 1.261719 -10.523438 Z M 1.261719 0 "/></g></g></g><g fill="#282f34" fill-opacity="1"><g transform="translate(252.822761, 277.676725)"><g><path d="M 4.179688 0 L 6.523438 0 L 10.566406 -10.523438 L 8.011719 -10.523438 L 5.367188 -3.441406 L 4.101562 -6.777344 L 2.707031 -10.523438 L 0.136719 -10.523438 Z M 4.179688 0 "/></g></g></g><g fill="#282f34" fill-opacity="1"><g transform="translate(263.823692, 277.676725)"><g><path d="M 1.261719 0 L 3.652344 0 L 3.652344 -10.523438 L 1.261719 -10.523438 Z M 1.261719 0 "/></g></g></g><g fill="#282f34" fill-opacity="1"><g transform="translate(269.038717, 277.676725)"><g><path d="M 3.789062 0 L 6.179688 0 L 6.179688 -8.28125 L 9.515625 -8.28125 L 9.515625 -10.523438 L 0.449219 -10.523438 L 0.449219 -8.28125 L 3.789062 -8.28125 Z M 3.789062 0 "/></g></g></g><g fill="#282f34" fill-opacity="1"><g transform="translate(279.303259, 277.676725)"><g><path d="M 4.011719 0 L 6.402344 0 L 6.402344 -3.710938 L 10.265625 -10.523438 L 7.546875 -10.523438 L 6.253906 -8.085938 L 5.214844 -6.179688 L 4.164062 -8.085938 L 2.855469 -10.523438 L 0.136719 -10.523438 L 4.011719 -3.683594 Z M 4.011719 0 "/></g></g></g></svg>